PathFileType	4	(X/Y/Z)	C:\Users\Basilio\Documents\Thesis Gigler\squatting_fais\c3dfiles\076\SLS_front_pre3\markers_experimental.trc
DataRate	CameraRate	NumFrames	NumMarkers	Units	OrigDataRate	OrigDataStartFrame	OrigNumFrames
200.000000	200.000000	4	61	mm	200.000000	181	1453
Frame#	Time	FHD			LBHD			RBHD			C7			T10			CLAV			LSHO			LUUPA			LMUPA			LDUPA			LLEP			LMEP			LRAD			LUL			LRFIN			RSHO			RUPA1			RMUPA			RDUPA			RLEP			RMEP			RRAD			RUL			RUFIN			LASI			RASI			USACR			LSACR			RSACR			LTHI1			LTHI2			LTHI4			LLFC			LMFC			LTIB1			LTIB2			LTIB3			LTIB4			LLMAL			LMMAL			LHEE			LMT1			LMT2			LMT5			RTHI			RTHI2			RTHI3			RTHI4			RLFC			RMFC			RTIB1			RTIB2			RTIB3			RTIB4			RLMAL			RMMAL			RHEE			RMT1			RMT2			RMT5			LTHI3			
		X1	Y1	Z1	X2	Y2	Z2	X3	Y3	Z3	X4	Y4	Z4	X5	Y5	Z5	X6	Y6	Z6	X7	Y7	Z7	X8	Y8	Z8	X9	Y9	Z9	X10	Y10	Z10	X11	Y11	Z11	X12	Y12	Z12	X13	Y13	Z13	X14	Y14	Z14	X15	Y15	Z15	X16	Y16	Z16	X17	Y17	Z17	X18	Y18	Z18	X19	Y19	Z19	X20	Y20	Z20	X21	Y21	Z21	X22	Y22	Z22	X23	Y23	Z23	X24	Y24	Z24	X25	Y25	Z25	X26	Y26	Z26	X27	Y27	Z27	X28	Y28	Z28	X29	Y29	Z29	X30	Y30	Z30	X31	Y31	Z31	X32	Y32	Z32	X33	Y33	Z33	X34	Y34	Z34	X35	Y35	Z35	X36	Y36	Z36	X37	Y37	Z37	X38	Y38	Z38	X39	Y39	Z39	X40	Y40	Z40	X41	Y41	Z41	X42	Y42	Z42	X43	Y43	Z43	X44	Y44	Z44	X45	Y45	Z45	X46	Y46	Z46	X47	Y47	Z47	X48	Y48	Z48	X49	Y49	Z49	X50	Y50	Z50	X51	Y51	Z51	X52	Y52	Z52	X53	Y53	Z53	X54	Y54	Z54	X55	Y55	Z55	X56	Y56	Z56	X57	Y57	Z57	X58	Y58	Z58	X59	Y59	Z59	X60	Y60	Z60	X61	Y61	Z61	

182	0.905	-233.2244567871094	1637.263061523438	-987.6220703125002	-343.4461975097657	1562.691040039063	-1114.047607421875	-367.4255676269532	1569.419921875	-964.706726074219	-403.9707031250001	1436.508666992188	-1032.208740234375	-408.133758544922	1118.137329101563	-1036.080810546875	-265.9343872070313	1369.379028320313	-1027.625732421875	-325.6424560546876	1377.890258789063	-1211.435913085938	-305.9825134277344	1171.949951171875	-1269.54345703125	-272.5476989746094	1149.102783203125	-1240.770385742188	-298.4620361328126	1103.502563476563	-1274.234375	-308.6799621582032	1047.480712890625	-1275.529174804688	-347.2244873046876	1034.037475585938	-1204.418701171875	-192.434555053711	832.8129882812502	-1224.480346679688	-227.2012176513672	817.9149169921877	-1278.308349609375	-157.103256225586	752.6384887695314	-1231.703002929688	-337.5803833007813	1369.0966796875	-856.590515136719	-353.6732788085938	1163.57177734375	-792.834899902344	-308.0288391113282	1144.728759765625	-796.1845703125002	-341.9447021484376	1094.202026367188	-793.8228149414065	-321.6933593750001	1033.513916015625	-796.362243652344	-334.4912109375001	1023.741149902344	-876.6743164062502	-203.2467498779297	818.9892578125002	-822.5938720703127	-256.2214050292969	808.3757324218752	-783.379333496094	-177.4481201171875	749.0786132812501	-793.2880859375002	-229.3667755126954	950.0369873046877	-1134.8154296875	-239.0375213623047	946.5004882812502	-917.4216308593752	-405.2058410644532	1008.037475585938	-1029.409057617188	-409.5020141601564	979.1450195312502	-1058.14111328125	-410.717987060547	976.5942382812502	-1002.200927734375	-312.1692199707032	788.7933349609377	-1189.602416992188	-294.7193603515626	709.0684814453126	-1175.729125976563	-329.1602783203126	660.8040771484376	-1161.8173828125	-347.9132690429688	501.7934875488282	-1123.203125	-314.1732177734376	503.5934448242189	-1008.6484375	-318.4545898437501	362.5483093261719	-1042.840209960938	-342.3499145507813	304.9135437011719	-1105.213134765625	-313.0319824218751	310.2476196289063	-1068.618041992188	-326.6776428222657	236.2225646972657	-1030.509399414063	-383.7862854003907	106.6769332885742	-1070.692138671875	-356.1833801269532	123.6590118408203	-992.9123535156252	-441.8851318359376	96.42827606201175	-1023.864074707031	-238.5840911865235	54.14802551269533	-1005.164794921875	-233.9147033691407	48.99713134765626	-1044.167602539063	-257.4476623535157	42.66089248657227	-1094.151489257813	-316.8144226074219	698.5431518554689	-831.5254516601565	-274.8976745605469	648.7906494140626	-812.3724365234377	-240.950912475586	653.9542846679689	-814.2325439453127	-290.5969238281251	567.0581665039064	-822.776550292969	-284.7248840332032	511.8325195312501	-817.8142089843752	-232.2585754394532	491.4769287109376	-920.7857055664065	-260.8377380371094	373.2748718261719	-812.4954833984377	-348.0437011718751	310.2606201171876	-793.267761230469	-302.3753662109376	298.5355834960938	-795.249450683594	-292.9648132324219	246.9908752441407	-821.486999511719	-378.1062316894532	120.2459945678711	-785.6124267578127	-351.2993164062501	127.017936706543	-866.9016113281252	-436.9124755859376	106.3956604003907	-824.7153930664065	-243.3175659179688	51.03289794921876	-850.8044433593752	-235.2591705322266	52.72274017333986	-805.904479980469	-263.0516052246094	39.51966857910157	-751.4235839843751	-248.6967010498047	709.2165527343751	-1166.678466796875	
183	0.91	-233.3639678955079	1637.268188476563	-987.4102783203127	-343.3680114746094	1562.747314453125	-1113.97607421875	-367.5721435546876	1569.433349609375	-964.6741333007815	-404.0484313964845	1436.542358398438	-1032.0625	-408.1842651367189	1118.177612304688	-1035.947021484375	-265.9591674804688	1369.431762695313	-1027.53466796875	-325.5801391601563	1377.875122070313	-1211.178100585938	-306.0724182128907	1172.030029296875	-1269.451171875	-272.5779418945313	1149.110961914063	-1240.68115234375	-298.5777282714844	1103.561157226563	-1274.127807617188	-308.7369995117188	1047.51318359375	-1275.480590820313	-347.3882446289063	1034.089965820313	-1204.405517578125	-192.5951080322266	832.8577270507815	-1224.590087890625	-227.3272094726563	817.911071777344	-1278.295166015625	-157.2170715332032	752.6809082031251	-1231.7939453125	-337.6017456054688	1369.155151367188	-856.4953613281252	-353.6725769042969	1163.62060546875	-792.678649902344	-308.1060791015626	1144.714477539063	-796.0743408203127	-341.9145202636719	1094.218627929688	-793.7237548828127	-321.6723022460938	1033.555419921875	-796.1954345703127	-334.6404724121094	1023.679138183594	-876.7061767578127	-203.2944335937501	818.9692993164065	-822.4135742187502	-256.2193603515626	808.4234008789065	-783.1980590820315	-177.447982788086	749.0776977539064	-793.1199340820315	-229.5466918945313	950.0823364257815	-1134.720703125	-239.0195617675782	946.539245605469	-917.3129882812502	-405.4497985839845	1008.193725585938	-1029.263427734375	-409.5657958984376	979.0827636718752	-1058.003784179688	-410.7920227050782	976.5733032226565	-1002.075256347656	-312.1603698730469	788.8673095703127	-1189.552001953125	-294.7610473632813	709.1287841796876	-1175.700439453125	-329.0769042968751	660.7793579101564	-1161.673095703125	-347.9164733886719	501.7691955566407	-1123.124755859375	-314.1488037109376	503.5810852050782	-1008.589538574219	-318.5318298339844	362.5496826171876	-1042.827880859375	-342.3716735839844	304.9213867187501	-1105.195922851563	-313.0248718261719	310.2233276367188	-1068.589233398438	-326.4570922851563	236.1228485107422	-1030.256958007813	-383.6900634765626	106.6984329223633	-1070.627807617188	-356.1700744628907	123.6771240234375	-992.8978271484377	-442.1621398925782	96.55334472656253	-1023.910278320313	-238.5795593261719	54.20849990844728	-1005.145385742188	-233.9872741699219	49.06894302368165	-1044.187255859375	-257.4724426269532	42.65512847900391	-1094.156005859375	-316.8318481445313	698.5448608398439	-831.4592895507815	-274.8507690429688	648.8096923828126	-812.287536621094	-240.9405975341797	653.9707031250001	-814.1530761718752	-290.5656127929688	567.0433959960939	-822.7371215820315	-284.7210998535157	511.8481445312501	-817.7551879882815	-232.3147583007813	491.4302978515626	-920.7075805664065	-260.7939453125001	373.2940979003907	-812.4888305664065	-347.9910888671876	310.3094787597657	-793.1589355468752	-302.3691101074219	298.5323486328126	-795.273864746094	-292.9314575195313	246.9886627197266	-821.5040283203127	-378.0962524414063	120.2564163208008	-785.6326904296877	-351.3467102050782	127.005485534668	-866.8873291015627	-436.9129638671876	106.4325408935547	-824.714782714844	-243.3834991455079	51.06068420410158	-850.828063964844	-235.050033569336	52.69095611572267	-805.8536376953127	-263.0585327148438	39.42644119262696	-751.4018554687501	-248.7764892578126	709.3298950195314	-1166.664184570313	
184	0.915	-233.4079895019532	1637.243286132813	-987.2485351562502	-343.2777709960938	1563.016235351563	-1113.861450195313	-367.6028442382813	1569.480102539063	-964.515808105469	-404.2156982421876	1436.513671875	-1031.921508789063	-408.2800903320314	1118.189819335938	-1035.821655273438	-266.0189819335938	1369.500366210938	-1027.403198242188	-325.8319702148438	1377.9892578125	-1211.259643554688	-306.1089782714844	1172.075317382813	-1269.365356445313	-272.5938110351563	1149.14306640625	-1240.634643554688	-298.7211303710938	1103.66796875	-1274.103393554688	-308.9421691894532	1047.607299804688	-1275.397094726563	-347.4210510253907	1034.063232421875	-1204.369506835938	-192.7211608886719	832.9556884765627	-1224.681640625	-228.1267700195313	817.841247558594	-1277.872680664063	-157.1884460449219	752.7448120117189	-1231.814086914063	-337.6608581542969	1369.105590820313	-856.3662719726565	-353.7131347656251	1163.585693359375	-792.564392089844	-308.0452270507813	1144.750244140625	-795.9107055664065	-341.8984069824219	1094.228637695313	-793.5986328125002	-321.6786193847657	1033.547729492188	-796.0748291015627	-334.5403747558594	1023.6591796875	-876.6109619140627	-203.2952423095704	819.0111083984377	-822.3650512695315	-256.1999816894532	808.4385375976565	-783.0518188476565	-177.4358062744141	749.0988159179689	-792.9783935546877	-229.5426635742188	950.087585449219	-1134.615234375	-239.0606079101563	946.5432128906252	-917.206970214844	-405.3626403808595	1008.159545898438	-1029.103393554688	-409.6026000976564	979.0750732421877	-1057.89892578125	-410.8131713867189	976.5880126953127	-1001.976501464844	-312.2451477050782	788.8720703125002	-1189.484619140625	-294.8333435058594	709.0602416992189	-1175.590087890625	-329.1191711425782	660.7385253906251	-1161.542846679688	-347.9345092773438	501.8249511718751	-1123.100952148438	-314.1992492675782	503.6177673339845	-1008.515991210938	-318.5140075683594	362.5509948730469	-1042.781616210938	-342.3356933593751	304.9524230957032	-1105.171630859375	-313.0350036621094	310.2526855468751	-1068.561889648438	-326.7382202148438	236.1627502441407	-1030.479370117188	-383.7337341308594	106.6858139038086	-1070.61083984375	-356.1846008300782	123.6406021118164	-992.9014282226565	-442.1567687988282	96.59505462646487	-1023.915588378906	-238.6273193359376	54.14166641235353	-1005.157287597656	-233.9367980957032	49.00072860717775	-1044.150268554688	-257.4299621582032	42.67418289184571	-1094.135131835938	-316.8528137207032	698.5535888671876	-831.384460449219	-274.8323059082032	648.8236694335939	-812.2102050781252	-240.8919372558594	653.9320068359376	-814.1248779296877	-290.5637512207032	567.0317993164064	-822.640808105469	-284.7041015625001	511.8229064941407	-817.700622558594	-232.2762908935547	491.4348144531251	-920.6861572265627	-260.8082580566407	373.2724609375001	-812.5005493164065	-347.9804992675782	310.2936706542969	-793.139099121094	-302.2805480957032	298.5342407226563	-795.2355957031252	-292.9900512695313	247.0009002685547	-821.508239746094	-378.1101684570313	120.2267990112305	-785.6323852539065	-351.3475341796876	127.0313949584961	-866.8803710937502	-436.8907165527345	106.4432373046875	-824.7033691406252	-243.3480682373047	51.08151626586915	-850.8218383789065	-235.150375366211	52.69734954833986	-805.8457641601565	-263.0555114746094	39.46379089355469	-751.3969116210939	-248.7958374023438	709.4376831054689	-1166.687744140625	
185	0.92	-233.4653320312501	1637.23095703125	-987.0806274414065	-343.3861999511719	1562.974487304688	-1113.754516601563	-367.7994995117188	1569.523559570313	-964.4801025390627	-404.3006286621095	1436.545654296875	-1031.771606445313	-408.3125610351564	1118.164916992188	-1035.71875	-266.1178588867188	1369.53173828125	-1027.3134765625	-325.8646850585938	1377.98486328125	-1211.0537109375	-306.2815551757813	1172.1103515625	-1269.268920898438	-272.6767578125001	1149.199096679688	-1240.588623046875	-298.7812805175782	1103.69140625	-1273.985229492188	-308.9704589843751	1047.623291015625	-1275.322875976563	-347.4519042968751	1034.334228515625	-1204.325439453125	-192.7194366455079	832.954528808594	-1224.673583984375	-228.2722473144532	817.9275512695315	-1277.920166015625	-157.2935333251953	752.7406005859376	-1231.871826171875	-337.6472473144532	1369.17822265625	-856.256530761719	-353.7150878906251	1163.64306640625	-792.4609375000002	-307.9964904785157	1144.817260742188	-795.7886352539065	-341.9241943359376	1094.252197265625	-793.4483032226565	-321.6287536621094	1033.5634765625	-795.9343261718752	-334.4729614257813	1023.769592285156	-876.459655761719	-203.3139343261719	819.0186157226565	-822.1696777343752	-256.2301330566407	808.417175292969	-782.907897949219	-177.4341888427735	749.1458740234376	-792.799499511719	-229.5531463623047	950.0820312500002	-1134.509887695313	-239.0488739013672	946.586120605469	-917.1173095703127	-405.3557739257814	1008.150817871094	-1029.028686523438	-409.6657104492189	979.068542480469	-1057.737915039063	-410.8857727050782	976.5982055664065	-1001.828063964844	-312.3367309570313	788.9778442382815	-1189.418212890625	-294.7933044433594	709.1038818359376	-1175.43798828125	-329.1632690429688	660.8046875000001	-1161.557006835938	-347.8908691406251	501.8115844726564	-1123.021850585938	-314.1890563964844	503.5770874023439	-1008.408508300781	-318.5087585449219	362.5842285156251	-1042.6943359375	-342.3844299316407	304.9876098632813	-1105.090576171875	-313.1041564941407	310.2944946289063	-1068.501586914063	-326.4595947265626	236.093978881836	-1030.235595703125	-383.7673034667969	106.6921615600586	-1070.622192382813	-356.1636352539063	123.6840057373047	-992.8706665039065	-441.8785705566407	96.46426391601565	-1023.864685058594	-238.5558319091797	54.11544418334962	-1005.07958984375	-233.9759063720704	49.06512451171876	-1044.1591796875	-258.2198486328126	42.92390823364259	-1094.423706054688	-316.8423767089844	698.5593261718751	-831.3162841796877	-274.8980712890626	648.7503662109376	-812.1790161132815	-240.9513549804688	653.8743896484376	-814.0334472656252	-290.5397949218751	567.0462036132814	-822.5750732421877	-284.6456909179688	511.8212280273439	-817.6629028320315	-232.3524780273438	491.4498291015626	-920.6364746093752	-261.1416320800782	373.4350280761719	-812.5789794921877	-347.8891906738282	310.2943115234376	-793.056579589844	-302.2375793457032	298.5743713378907	-795.1890258789065	-292.9373779296876	246.9354400634766	-821.4768676757815	-378.0607910156251	120.2470703125	-785.621276855469	-351.2315673828126	127.0151748657227	-866.8526611328127	-436.929412841797	106.4813079833985	-824.7044677734377	-243.4125061035157	51.05271530151369	-850.8071289062502	-235.1079254150391	52.68397903442384	-805.8257446289065	-263.0473327636719	39.44075393676759	-751.3922729492189	-248.7500457763672	709.4638061523439	-1166.548095703125	
